<svg width="20" height="20" viewBox="0 0 20 20" fill="none" xmlns="http://www.w3.org/2000/svg">
<g clip-path="url(#clip0_34_195)">
<path d="M0 2.26V17.56L11.64 20V0L0 2.26ZM7.8 12.5C7.3 13.14 6.66 13.46 5.86 13.46C5.1 13.46 4.46 13.14 3.98 12.52C3.5 11.9 3.26 11.08 3.26 10.06C3.26 9 3.5 8.14 4 7.48C4.5 6.82 5.14 6.5 5.96 6.5C6.72 6.5 7.34 6.82 7.82 7.44C8.3 8.08 8.52 8.9 8.52 9.94C8.54 11 8.28 11.84 7.8 12.5ZM5.92 7.8C5.5 7.8 5.16 8 4.9 8.4C4.64 8.8 4.54 9.34 4.54 9.98C4.54 10.66 4.66 11.18 4.9 11.58C5.16 11.96 5.48 12.16 5.9 12.16C6.3 12.16 6.64 11.96 6.88 11.58C7.12 11.2 7.26 10.68 7.26 10.02C7.26 9.32 7.14 8.78 6.9 8.38C6.66 8 6.34 7.8 5.92 7.8ZM12.38 9.6L13.62 10.46C13.8 10.6 14.02 10.46 14.02 10.46C13.8 10.6 19.78 6.62 19.78 6.62V13.82C19.78 14.6 19.28 14.92 18.72 14.92H12.38V9.6ZM12.38 4.24V8.16L13.74 9.02C13.78 9.02 13.86 9.02 13.9 9.02L19.78 5.04C19.78 4.58 19.34 4.24 19.1 4.24H12.38Z" fill="#E5E5E5"/>
</g>
<defs>
<clipPath id="clip0_34_195">
<rect width="20" height="20" fill="white"/>
</clipPath>
</defs>
</svg>
